<?xml version="1.0" standalone="no"?>
<!DOCTYPE svg PUBLIC "-//W3C//DTD SVG 20010904//EN"
 "http://www.w3.org/TR/2001/REC-SVG-20010904/DTD/svg10.dtd">
<svg version="1.0" xmlns="http://www.w3.org/2000/svg"
 width="300.000000pt" height="300.000000pt" viewBox="0 0 300.000000 300.000000"
 preserveAspectRatio="xMidYMid meet">
<metadata>
Created by potrace 1.14, written by Peter Selinger 2001-2017
</metadata>
<g transform="translate(0.000000,300.000000) scale(0.100000,-0.100000)"
fill="#000000" stroke="none">
<path d="M1402 2539 c-90 -11 -223 -55 -299 -100 -86 -51 -202 -171 -245 -254
-55 -106 -71 -180 -65 -305 5 -117 23 -177 84 -276 110 -179 139 -230 193
-339 75 -153 86 -189 101 -320 l13 -107 44 6 c25 3 54 6 65 6 19 0 20 4 13 87
-3 48 -13 115 -21 149 -27 115 -145 356 -270 549 -66 102 -86 153 -92 241 -22
289 242 534 577 534 278 0 514 -170 570 -409 16 -66 8 -180 -16 -241 -9 -25
-40 -81 -69 -125 -125 -193 -243 -434 -270 -549 -8 -34 -18 -101 -21 -149 -7
-83 -6 -87 13 -87 11 0 40 -3 65 -6 l44 -6 13 107 c15 131 26 167 101 320 54
109 83 160 193 339 61 99 79 159 84 276 6 124 -10 199 -63 301 -130 248 -435
395 -742 358z"/>
<path d="M1452 883 c-92 -31 -105 -39 -117 -66 -16 -39 -9 -65 25 -82 26 -13
37 -11 145 25 65 22 126 47 137 56 22 21 23 52 2 82 -22 31 -68 28 -192 -15z"/>
<path d="M1510 750 c-154 -59 -190 -82 -190 -121 0 -10 9 -28 21 -40 21 -21
67 -23 114 -4 14 6 11 1 -7 -14 -30 -24 -35 -49 -17 -82 21 -41 50 -41 176 2
123 41 140 51 143 84 4 33 1 43 -16 59 -22 23 -59 20 -159 -14 -49 -16 -90
-28 -92 -27 -2 2 50 23 114 47 127 46 163 70 163 107 0 31 -34 63 -67 62 -16
0 -98 -27 -183 -59z"/>
</g>
</svg>
